<?xml version="1.0" encoding="UTF-8" standalone="no"?>
<!-- Created with Inkscape (http://www.inkscape.org/) -->

<svg
   xmlns:dc="http://purl.org/dc/elements/1.1/"
   xmlns:cc="http://creativecommons.org/ns#"
   xmlns:rdf="http://www.w3.org/1999/02/22-rdf-syntax-ns#"
   xmlns:svg="http://www.w3.org/2000/svg"
   xmlns="http://www.w3.org/2000/svg"
   xmlns:sodipodi="http://sodipodi.sourceforge.net/DTD/sodipodi-0.dtd"
   xmlns:inkscape="http://www.inkscape.org/namespaces/inkscape"
   width="210mm"
   height="297mm"
   viewBox="0 0 210 297"
   version="1.1"
   id="svg8"
   inkscape:version="0.91+devel r"
   sodipodi:docname="gforce2.svg">
  <defs
     id="defs2" />
  <sodipodi:namedview
     id="base"
     pagecolor="#ffffff"
     bordercolor="#666666"
     borderopacity="1.0"
     inkscape:pageopacity="0.0"
     inkscape:pageshadow="2"
     inkscape:zoom="0.33918981"
     inkscape:cx="673.39719"
     inkscape:cy="556.15393"
     inkscape:document-units="mm"
     inkscape:current-layer="g5201"
     showgrid="false"
     inkscape:window-width="625"
     inkscape:window-height="544"
     inkscape:window-x="0"
     inkscape:window-y="26"
     inkscape:window-maximized="0"
     fit-margin-top="0"
     fit-margin-left="0"
     fit-margin-right="0"
     fit-margin-bottom="0" />
  <metadata
     id="metadata5">
    <rdf:RDF>
      <cc:Work
         rdf:about="">
        <dc:format>image/svg+xml</dc:format>
        <dc:type
           rdf:resource="http://purl.org/dc/dcmitype/StillImage" />
        <dc:title />
      </cc:Work>
    </rdf:RDF>
  </metadata>
  <g
     inkscape:label="Camada 1"
     inkscape:groupmode="layer"
     id="layer1"
     transform="translate(-961.30719,223.29109)">
    <g
       id="g4004"
       style="fill:#000000;stroke:none;stroke-width:0.1;stroke-miterlimit:4;stroke-dasharray:none;fill-opacity:1"
       transform="translate(-8.1018417,-3.254685)">
      <g
         transform="matrix(0.70123588,0,0,0.70123588,188.2394,-11.79431)"
         id="g85"
         style="fill:#000000;stroke:none;stroke-width:0.14260536;stroke-miterlimit:4;stroke-dasharray:none;fill-opacity:1" />
      <g
         transform="matrix(0.70123588,0,0,0.70123588,254.39452,-11.79431)"
         id="g91"
         style="fill:#000000;stroke:none;stroke-width:0.14260536;stroke-miterlimit:4;stroke-dasharray:none;fill-opacity:1" />
      <g
         id="g97"
         transform="matrix(0.70123588,0,0,0.70123588,232.34281,-11.79431)"
         style="fill:#000000;stroke:none;stroke-width:0.14260536;stroke-miterlimit:4;stroke-dasharray:none;fill-opacity:1" />
      <g
         transform="matrix(0.70123588,0,0,0.70123588,243.36867,-11.79431)"
         id="g103"
         style="fill:#000000;stroke:none;stroke-width:0.14260536;stroke-miterlimit:4;stroke-dasharray:none;fill-opacity:1" />
      <g
         transform="matrix(0.70123588,0,0,0.70123588,221.31696,-11.79431)"
         id="g109"
         style="fill:#000000;stroke:none;stroke-width:0.14260536;stroke-miterlimit:4;stroke-dasharray:none;fill-opacity:1" />
      <g
         id="g115"
         transform="matrix(0.70123588,0,0,0.70123588,210.29111,-11.79431)"
         style="fill:#000000;stroke:none;stroke-width:0.14260536;stroke-miterlimit:4;stroke-dasharray:none;fill-opacity:1" />
      <g
         transform="matrix(0.70123588,0,0,0.70123588,199.26525,-11.79431)"
         id="g121"
         style="fill:#000000;stroke:none;stroke-width:0.14260536;stroke-miterlimit:4;stroke-dasharray:none;fill-opacity:1" />
      <g
         id="g150"
         transform="matrix(0.70123588,0,0,0.70123588,279.21087,-11.79431)"
         style="fill:#000000;stroke:none;stroke-width:0.14260536;stroke-miterlimit:4;stroke-dasharray:none;fill-opacity:1" />
      <g
         id="g156"
         transform="matrix(0.70123588,0,0,0.70123588,345.36599,-11.79431)"
         style="fill:#000000;stroke:none;stroke-width:0.14260536;stroke-miterlimit:4;stroke-dasharray:none;fill-opacity:1" />
      <g
         transform="matrix(0.70123588,0,0,0.70123588,323.31428,-11.79431)"
         id="g162"
         style="fill:#000000;stroke:none;stroke-width:0.14260536;stroke-miterlimit:4;stroke-dasharray:none;fill-opacity:1" />
      <g
         id="g168"
         transform="matrix(0.70123588,0,0,0.70123588,334.34014,-11.79431)"
         style="fill:#000000;stroke:none;stroke-width:0.14260536;stroke-miterlimit:4;stroke-dasharray:none;fill-opacity:1" />
      <g
         id="g174"
         transform="matrix(0.70123588,0,0,0.70123588,312.28843,-11.79431)"
         style="fill:#000000;stroke:none;stroke-width:0.14260536;stroke-miterlimit:4;stroke-dasharray:none;fill-opacity:1" />
      <g
         transform="matrix(0.70123588,0,0,0.70123588,301.26258,-11.79431)"
         id="g180"
         style="fill:#000000;stroke:none;stroke-width:0.14260536;stroke-miterlimit:4;stroke-dasharray:none;fill-opacity:1" />
      <g
         id="g186"
         transform="matrix(0.70123588,0,0,0.70123588,290.23672,-11.79431)"
         style="fill:#000000;stroke:none;stroke-width:0.14260536;stroke-miterlimit:4;stroke-dasharray:none;fill-opacity:1" />
      <g
         transform="matrix(0.70123588,0,0,0.70123588,370.18232,-11.79431)"
         id="g194"
         style="fill:#000000;stroke:none;stroke-width:0.14260536;stroke-miterlimit:4;stroke-dasharray:none;fill-opacity:1" />
      <g
         transform="matrix(0.70123588,0,0,0.70123588,436.33744,-11.79431)"
         id="g200"
         style="fill:#000000;stroke:none;stroke-width:0.14260536;stroke-miterlimit:4;stroke-dasharray:none;fill-opacity:1" />
      <g
         id="g206"
         transform="matrix(0.70123588,0,0,0.70123588,414.28573,-11.79431)"
         style="fill:#000000;stroke:none;stroke-width:0.14260536;stroke-miterlimit:4;stroke-dasharray:none;fill-opacity:1" />
      <g
         transform="matrix(0.70123588,0,0,0.70123588,425.31159,-11.79431)"
         id="g212"
         style="fill:#000000;stroke:none;stroke-width:0.14260536;stroke-miterlimit:4;stroke-dasharray:none;fill-opacity:1" />
      <g
         transform="matrix(0.70123588,0,0,0.70123588,403.25988,-11.79431)"
         id="g218"
         style="fill:#000000;stroke:none;stroke-width:0.14260536;stroke-miterlimit:4;stroke-dasharray:none;fill-opacity:1" />
      <g
         id="g224"
         transform="matrix(0.70123588,0,0,0.70123588,392.23403,-11.79431)"
         style="fill:#000000;stroke:none;stroke-width:0.14260536;stroke-miterlimit:4;stroke-dasharray:none;fill-opacity:1" />
      <g
         transform="matrix(0.70123588,0,0,0.70123588,381.20817,-11.79431)"
         id="g230"
         style="fill:#000000;stroke:none;stroke-width:0.14260536;stroke-miterlimit:4;stroke-dasharray:none;fill-opacity:1" />
      <path
         id="rect12-3"
         d="m 1064.0018,27.833297 v 26.458706 h 85.2836 V 27.833297 Z m 4.8335,2.202464 h 1.2041 v 10.235335 h -1.2041 z m 3.307,0 h 1.2041 v 10.235335 h -1.2041 z m 3.3069,0 h 1.2043 v 10.235335 h -1.2043 z m 3.3071,0 h 1.2042 v 10.235335 h -1.2042 z m 3.307,0 h 1.2041 v 10.235335 h -1.2041 z m 3.3069,0 h 1.2043 v 10.235335 h -1.2043 z m 3.3071,0 h 1.2042 v 10.235335 h -1.2042 z m 7.4431,0 h 1.2042 v 10.235335 h -1.2042 z m 3.3071,0 h 1.2042 v 10.235335 h -1.2042 z m 3.307,0 h 1.2041 v 10.235335 h -1.2041 z m 3.3069,0 h 1.2042 v 10.235335 h -1.2042 z m 3.3071,0 h 1.2042 v 10.235335 h -1.2042 z m 3.307,0 h 1.2041 v 10.235335 h -1.2041 z m 3.3069,0 h 1.2042 v 10.235335 h -1.2042 z m 7.4433,0 h 1.2042 v 10.235335 h -1.2042 z m 3.307,0 h 1.2041 v 10.235335 h -1.2041 z m 3.3071,0 h 1.2041 v 10.235335 h -1.2041 z m 3.3069,0 h 1.2042 v 10.235335 h -1.2042 z m 3.307,0 h 1.2041 v 10.235335 h -1.2041 z m 3.3069,0 h 1.2043 v 10.235335 h -1.2043 z m 3.3071,0 h 1.2042 v 10.235335 h -1.2042 z m -74.4124,11.818443 h 1.2041 v 10.235335 h -1.2041 z m 3.307,0 h 1.2041 v 10.235335 h -1.2041 z m 3.3069,0 h 1.2043 v 10.235335 h -1.2043 z m 3.3071,0 h 1.2042 v 10.235335 h -1.2042 z m 3.307,0 h 1.2041 v 10.235335 h -1.2041 z m 3.3069,0 h 1.2043 v 10.235335 h -1.2043 z m 3.3071,0 h 1.2042 v 10.235335 h -1.2042 z m 7.4431,0 h 1.2042 v 10.235335 h -1.2042 z m 3.3071,0 h 1.2042 v 10.235335 h -1.2042 z m 3.307,0 h 1.2041 v 10.235335 h -1.2041 z m 3.3069,0 h 1.2042 v 10.235335 h -1.2042 z m 3.3071,0 h 1.2042 v 10.235335 h -1.2042 z m 3.307,0 h 1.2041 v 10.235335 h -1.2041 z m 3.3069,0 h 1.2042 v 10.235335 h -1.2042 z m 7.4433,0 h 1.2042 v 10.235335 h -1.2042 z m 3.307,0 h 1.2041 v 10.235335 h -1.2041 z m 3.3071,0 h 1.2041 v 10.235335 h -1.2041 z m 3.3069,0 h 1.2042 v 10.235335 h -1.2042 z m 3.307,0 h 1.2041 v 10.235335 h -1.2041 z m 3.3069,0 h 1.2043 v 10.235335 h -1.2043 z m 3.3071,0 h 1.2042 v 10.235335 h -1.2042 z"
         style="opacity:1;fill:#000000;fill-opacity:1;stroke:none;stroke-width:0.1;stroke-linecap:round;stroke-linejoin:round;stroke-miterlimit:4;stroke-dasharray:none;stroke-dashoffset:0;stroke-opacity:1"
         inkscape:connector-curvature="0" />
      <path
         id="path61"
         d="m 1064.1805,-178.21341 -60.402,60.29761 -0.074,85.347246 60.2971,60.401998 85.3473,0.0739 13.6704,-13.646711 -46.7485,-46.829182 0.074,-85.347251 46.7315,-46.6509 -13.549,-13.5723 z"
         style="opacity:1;fill:#000000;fill-opacity:1;stroke:none;stroke-width:0.1;stroke-linecap:round;stroke-linejoin:round;stroke-miterlimit:4;stroke-dasharray:none;stroke-dashoffset:0;stroke-opacity:1"
         inkscape:connector-curvature="0" />
      <path
         id="path477"
         d="m 1003.6972,-32.471224 -18.7091,18.709132 60.3046,60.304577 18.7091,-18.709132 z m 1.8604,4.975169 0.8515,0.85146 -7.23747,7.237472 -0.85146,-0.851457 z m 2.3384,2.338368 0.8515,0.851461 -7.2375,7.237472 -0.8515,-0.851458 z m 2.3384,2.338369 0.8515,0.851568 -7.2374,7.237475 -0.8516,-0.851568 z m 2.3385,2.338476 0.8514,0.851461 -7.2375,7.237475 -0.8514,-0.851461 z m 2.3383,2.338369 0.8515,0.851461 -7.2375,7.237475 -0.8515,-0.851461 z m 2.3384,2.338362 0.8516,0.851572 -7.2375,7.2374662 -0.8516,-0.8515658 z m 2.3385,2.33848 0.8514,0.851455 -7.2375,7.2374598 -0.8514,-0.8514458 z m 5.263,5.2630794 0.8515,0.8514757 -7.2375,7.23746304 -0.8514,-0.85147576 z m 2.3385,2.3384765 0.8515,0.8514758 -7.2375,7.237463 -0.8514,-0.8514458 z m 2.3384,2.3383566 0.8515,0.8514698 -7.2375,7.237469 -0.8515,-0.8514758 z m 2.3384,2.3383806 0.8514,0.85144574 -7.2375,7.23746896 -0.8514,-0.8514457 z m 2.3384,2.3384765 0.8515,0.8514758 -7.2375,7.237469 -0.8514,-0.8514758 z m 2.3384,2.3383566 0.8515,0.8514458 -7.2375,7.237499 -0.8515,-0.851476 z m 2.3384,2.3383866 0.8514,0.8514457 -7.2375,7.2374695 -0.8514,-0.851445 z m 5.2631,5.2631692 0.8515,0.851476 -7.2375,7.23747 -0.8514,-0.851476 z m 2.3384,2.338358 0.8515,0.851475 -7.2375,7.237469 -0.8515,-0.851475 z m 2.3385,2.338476 0.8515,0.851476 -7.2375,7.237469 -0.8515,-0.851476 z m 2.3384,2.338387 0.8514,0.851476 -7.2374,7.237469 -0.8515,-0.851476 z m 2.3383,2.338356 0.8515,0.851446 -7.2375,7.237499 -0.8514,-0.851476 z m 2.3384,2.338387 0.8516,0.851536 -7.2375,7.237499 -0.8516,-0.851566 z m 2.3385,2.338476 0.8514,0.851446 -7.2374,7.237469 -0.8515,-0.851446 z m -60.97446,-44.260646 0.85146,0.851461 -7.23747,7.237475 -0.85147,-0.851461 z m 2.33837,2.338369 0.85149,0.851461 -7.23751,7.2374596 -0.85146,-0.8514458 z m 2.33839,2.338368 0.8515,0.851569 -7.23743,7.2374601 -0.85157,-0.8515657 z m 2.3385,2.338477 0.8514,0.851461 -7.23746,7.2374777 -0.85146,-0.8514758 z m 2.3383,2.3383805 0.8515,0.8514458 -7.2375,7.237463 -0.85145,-0.8514458 z m 2.3384,2.3383566 0.8516,0.8515657 -7.2375,7.23746301 -0.8516,-0.85156574 z m 2.3385,2.3384765 0.8514,0.8514458 -7.2375,7.237463 -0.8514,-0.8514458 z m 5.263,5.26307341 0.8515,0.85147579 -7.2375,7.237469 -0.8514,-0.8514758 z m 2.3385,2.33847659 0.8515,0.8514757 -7.2375,7.2374687 -0.8514,-0.8514454 z m 2.3384,2.3383565 0.8515,0.8514758 -7.2375,7.2374691 -0.8515,-0.851476 z m 2.3384,2.3383866 0.8514,0.8514458 -7.2375,7.2374695 -0.8514,-0.851445 z m 2.3384,2.3384766 0.8515,0.8514457 -7.2375,7.2375 -0.8514,-0.851476 z m 2.3384,2.3383567 0.8515,0.851446 -7.2375,7.23747 -0.8515,-0.851446 z m 2.3384,2.338387 0.8514,0.851446 -7.2375,7.237469 -0.8514,-0.851446 z m 5.2631,5.26317 0.8515,0.851475 -7.2375,7.237469 -0.8514,-0.851475 z m 2.3384,2.338356 0.8515,0.851476 -7.2375,7.237469 -0.8515,-0.851476 z m 2.3385,2.338477 0.8515,0.851476 -7.2375,7.237469 -0.8515,-0.851476 z m 2.3384,2.338386 0.8514,0.851476 -7.2374,7.237469 -0.8515,-0.851476 z m 2.3383,2.338357 0.8515,0.851446 -7.2375,7.237499 -0.8514,-0.851476 z m 2.3384,2.338387 0.8516,0.851535 -7.2375,7.237499 -0.8516,-0.851565 z m 2.3385,2.338476 0.8514,0.851446 -7.2374,7.237469 -0.8515,-0.851446 z"
         style="opacity:1;fill:#000000;fill-opacity:1;stroke:none;stroke-width:0.1;stroke-linecap:round;stroke-linejoin:round;stroke-miterlimit:4;stroke-dasharray:none;stroke-dashoffset:0;stroke-opacity:1"
         inkscape:connector-curvature="0" />
      <path
         inkscape:connector-curvature="0"
         style="opacity:1;fill:#000000;fill-opacity:1;stroke:none;stroke-width:0.1;stroke-linecap:round;stroke-linejoin:round;stroke-miterlimit:4;stroke-dasharray:none;stroke-dashoffset:0;stroke-opacity:1"
         d="m 1003.7045,-117.85215 h -26.45874 v 85.283547 h 26.45874 z m -2.2025,4.83348 v 1.20415 h -10.23533 v -1.20415 z m 0,3.30696 v 1.20414 h -10.23533 v -1.20414 z m 0,3.30695 v 1.2043 h -10.23533 v -1.2043 z m 0,3.3071 v 1.20415 h -10.23533 v -1.20415 z m 0,3.306954 v 1.204148 h -10.23533 v -1.204148 z m 0,3.306947 v 1.204303 l -10.23533,-6e-6 v -1.2043 z m 0,3.307109 v 1.204138 l -10.23532,-9e-6 -10e-6,-1.204132 z m 0,7.443111 v 1.204168 l -10.23533,-9e-6 v -1.204168 z m 0,3.30712 v 1.204151 l -10.23533,-6e-6 -10e-6,-1.204133 z m 0,3.306932 v 1.204162 l -10.23532,-6e-6 v -1.204165 z m 0,3.306961 v 1.20413 l -10.23533,-3e-6 v -1.204133 z m 0,3.307106 v 1.204168 l -10.23533,-6e-6 v -1.204165 z m 0,3.306944 v 1.204132 l -10.23534,1.8e-5 2e-5,-1.204153 z m 0,3.306967 v 1.204133 l -10.23533,-6e-6 v -1.20413 z m 0,7.443249 v 1.204169 l -10.23533,-3e-6 v -1.204169 z m 0,3.306947 v 1.204165 l -10.23532,-3e-6 v -1.204168 z m 0,3.307106 v 1.204165 l -10.23532,-3e-6 v -1.204168 z m 0,3.306967 v 1.204165 l -10.23533,-3e-6 v -1.204168 z m 0,3.306944 v 1.204132 l -10.23534,1.5e-5 2e-5,-1.20415 z m 0,3.306967 v 1.204271 l -10.23534,1.5e-5 10e-6,-1.204292 z m 0,3.307106 v 1.204132 l -10.23533,-6e-6 v -1.204129 z m -11.81844,-74.412447 v 1.20415 h -10.23534 v -1.20415 z m 0,3.30696 v 1.20414 l -10.23532,-1e-5 -2e-5,-1.20413 z m 0,3.30695 v 1.2043 l -10.23532,-10e-6 -1e-5,-1.2043 z m 0,3.3071 v 1.20415 h -10.23534 l 10e-6,-1.20415 z m -1e-5,3.306963 1e-5,1.204139 -10.23532,-9e-6 -2e-5,-1.204139 z m 1e-5,3.306941 v 1.2043 l -10.23533,-9e-6 v -1.2043 z m 0,3.307109 10e-6,1.204132 -10.23533,-9e-6 -1e-5,-1.204132 z m 0,7.443105 -1e-5,1.204168 -10.23533,-6e-6 v -1.204165 z m 10e-6,3.30712 -2e-5,1.204154 -10.23533,-6e-6 v -1.20413 z m 0,3.306932 v 1.204168 l -10.23534,-6e-6 1e-5,-1.204165 z m -2e-5,3.306964 1e-5,1.204133 -10.23533,-3e-6 -10e-6,-1.204133 z m 0,3.307106 3e-5,1.204147 -10.23536,1.8e-5 v -1.204165 z m 2e-5,3.306947 v 1.204132 l -10.23533,-6e-6 -1e-5,-1.204129 z m -2e-5,3.306967 1e-5,1.20413 -10.23533,-3e-6 -10e-6,-1.20413 z m 1e-5,7.443249 v 1.204169 l -10.23534,-6e-6 v -1.204169 z m 10e-6,3.306944 v 1.204168 l -10.23534,-6e-6 1e-5,-1.204165 z m 0,3.307106 v 1.204168 l -10.23534,-6e-6 1e-5,-1.204165 z m -10e-6,3.306967 -1e-5,1.204168 -10.23533,-6e-6 v -1.204165 z m 10e-6,3.306944 v 1.204135 l -10.23535,1.5e-5 2e-5,-1.20415 z m -2e-5,3.306967 2e-5,1.204271 -10.23535,1.8e-5 v -1.204292 z m 0,3.307106 1e-5,1.204132 -10.23533,-3e-6 -10e-6,-1.204132 z"
         id="path479" />
      <path
         id="path481"
         d="m 1064.1804,-178.21323 -18.7091,-18.70913 -60.3046,60.30458 18.7091,18.70913 z m -4.9752,1.86042 -0.8514,0.85146 -7.2375,-7.23748 0.8515,-0.85145 z m -2.3383,2.33837 -0.8515,0.85146 -7.2375,-7.23748 0.8515,-0.85146 z m -2.3384,2.33837 -0.8516,0.85157 -7.2374,-7.23748 0.8515,-0.85157 z m -2.3385,2.33847 -0.8514,0.85147 -7.2375,-7.23748 0.8514,-0.85146 z m -2.3383,2.33837 -0.8515,0.85146 -7.2375,-7.23747 0.8515,-0.85147 z m -2.3384,2.33837 -0.8516,0.85156 -7.2374,-7.23747 0.8515,-0.85157 z m -2.3385,2.33847 -0.8514,0.85146 -7.2375,-7.23748 0.8514,-0.85145 z m -5.2631,5.26307 -0.8514,0.85148 -7.2375,-7.23748 0.8515,-0.85147 z m -2.3384,2.3385 -0.8515,0.85145 -7.2375,-7.23747 0.8515,-0.85146 z m -2.3384,2.33835 -0.8515,0.85147 -7.2374,-7.23747 0.8514,-0.85147 z m -2.3384,2.33837 -0.8514,0.85145 -7.2375,-7.23747 0.8514,-0.85146 z m -2.3385,2.33848 -0.8514,0.85147 -7.2375,-7.23747 0.8515,-0.85148 z m -2.3383,2.33837 -0.8515,0.85145 -7.2375,-7.23747 0.8515,-0.85146 z m -2.3384,2.33837 -0.8514,0.85145 -7.2375,-7.23747 0.8514,-0.85146 z m -5.2632,5.26317 -0.8514,0.85148 -7.2375,-7.23748 0.8515,-0.85147 z m -2.3383,2.33837 -0.8515,0.85148 -7.2375,-7.23748 0.8515,-0.85147 z m -2.3385,2.33848 -0.8515,0.85147 -7.2374,-7.23747 0.8514,-0.85148 z m -2.3384,2.33837 -0.8515,0.85147 -7.2374,-7.23747 0.8514,-0.85147 z m -2.3383,2.33837 -0.8515,0.85145 -7.2375,-7.23747 0.8515,-0.85145 z m -2.3384,2.33837 -0.8516,0.85156 -7.2375,-7.23748 0.8516,-0.85155 z m -2.3385,2.33848 -0.8515,0.85145 -7.23743,-7.23747 0.85145,-0.85145 z m 44.2606,-60.97444 -0.8514,0.85146 -7.2375,-7.23748 0.8515,-0.85146 z m -2.3383,2.33837 -0.8515,0.85146 -7.2375,-7.23748 0.8515,-0.85146 z m -2.3384,2.33836 -0.8516,0.85157 -7.2374,-7.23747 0.8515,-0.85157 z m -2.3385,2.33848 -0.8514,0.85146 -7.2375,-7.23747 0.8515,-0.85146 z m -2.3384,2.33837 -0.8514,0.85146 -7.2375,-7.23747 0.8515,-0.85147 z m -2.3383,2.33836 -0.8516,0.85157 -7.2374,-7.23747 0.8515,-0.85157 z m -2.3385,2.33848 -0.8514,0.85146 -7.2375,-7.23748 0.8514,-0.85145 z m -5.2631,5.26307 -0.8514,0.85147 -7.2375,-7.23747 0.8515,-0.85147 z m -2.3384,2.3385 -0.8515,0.85145 -7.2375,-7.23747 0.8515,-0.85146 z m -2.3384,2.33835 -0.8515,0.85148 -7.2374,-7.23748 0.8514,-0.85148 z m -2.3384,2.33837 -0.8514,0.85145 -7.2375,-7.23747 0.8514,-0.85146 z m -2.3385,2.33848 -0.8514,0.85147 -7.2375,-7.23747 0.8515,-0.85148 z m -2.3383,2.33837 -0.8515,0.85145 -7.2374,-7.23748 0.8514,-0.85145 z m -2.3384,2.33837 -0.8515,0.85145 -7.2374,-7.23748 0.8514,-0.85145 z m -5.2632,5.26317 -0.8515,0.85148 -7.2374,-7.23748 0.8515,-0.85147 z m -2.3383,2.33837 -0.8515,0.85147 -7.2375,-7.23747 0.8515,-0.85147 z m -2.3385,2.33848 -0.8515,0.85147 -7.23745,-7.23747 0.85145,-0.85148 z m -2.3384,2.33837 -0.8515,0.85147 -7.23744,-7.23747 0.85148,-0.85147 z m -2.3383,2.33837 -0.8515,0.85146 -7.2375,-7.23748 0.85148,-0.85145 z m -2.3384,2.33837 -0.85157,0.85156 -7.2375,-7.23747 0.85156,-0.85156 z m -2.33851,2.33848 -0.85145,0.85145 -7.23747,-7.23747 0.85145,-0.85146 z"
         style="opacity:1;fill:#000000;fill-opacity:1;stroke:none;stroke-width:0.1;stroke-linecap:round;stroke-linejoin:round;stroke-miterlimit:4;stroke-dasharray:none;stroke-dashoffset:0;stroke-opacity:1"
         inkscape:connector-curvature="0" />
      <path
         inkscape:connector-curvature="0"
         style="opacity:1;fill:#000000;fill-opacity:1;stroke:none;stroke-width:0.1;stroke-linecap:round;stroke-linejoin:round;stroke-miterlimit:4;stroke-dasharray:none;stroke-dashoffset:0;stroke-opacity:1"
         d="m 1149.5277,-178.13925 v -26.4587 h -85.2836 v 26.4587 z m -4.8335,-2.20246 h -1.2041 v -10.23533 h 1.2041 z m -3.3069,0 h -1.2042 v -10.23533 l 1.2042,-1e-5 z m -3.307,0 h -1.2043 v -10.23534 h 1.2043 z m -3.3071,0 h -1.2042 v -10.23534 h 1.2042 z m -3.307,0 h -1.2041 v -10.23534 h 1.2041 z m -3.3069,0 h -1.2043 v -10.23533 h 1.2043 z m -3.3071,0 h -1.2041 v -10.23533 h 1.2041 z m -7.4431,-1e-5 h -1.2042 v -10.23533 l 1.2042,1e-5 z m -3.3071,2e-5 -1.2042,-2e-5 v -10.23533 h 1.2041 z m -3.307,-1e-5 -1.2041,1e-5 v -10.23534 l 1.2041,1e-5 z m -3.3069,-1e-5 -1.2042,1e-5 v -10.23533 l 1.2042,-1e-5 z m -3.3071,0 h -1.2042 v -10.23533 l 1.2042,1e-5 z m -3.307,2e-5 h -1.2041 v -10.23535 l 1.2041,1e-5 z m -3.307,-2e-5 -1.2041,1e-5 v -10.23533 l 1.2042,-1e-5 z m -7.4432,1e-5 h -1.2042 v -10.23533 h 1.2042 z m -3.3069,1e-5 h -1.2042 v -10.23534 l 1.2042,1e-5 z m -3.3072,0 h -1.2041 v -10.23533 h 1.2042 z m -3.3069,-1e-5 -1.2042,-1e-5 v -10.23533 l 1.2042,1e-5 z m -3.307,1e-5 h -1.2041 v -10.23535 l 1.2041,2e-5 z m -3.3069,-2e-5 -1.2043,2e-5 v -10.23535 h 1.2043 z m -3.3071,0 -1.2042,1e-5 v -10.23533 h 1.2042 z m 74.4124,-11.81843 h -1.2041 v -10.23534 h 1.2041 z m -3.3069,0 h -1.2042 v -10.23533 l 1.2042,-1e-5 z m -3.307,0 h -1.2043 v -10.23533 h 1.2043 z m -3.3071,0 h -1.2042 v -10.23534 l 1.2042,1e-5 z m -3.307,-1e-5 -1.2041,1e-5 v -10.23533 l 1.2041,-1e-5 z m -3.3069,0 -1.2043,1e-5 v -10.23533 h 1.2043 z m -3.3071,0 -1.2041,1e-5 v -10.23533 h 1.2041 z m -7.4431,0 h -1.2042 v -10.23533 h 1.2042 z m -3.3071,2e-5 -1.2042,-2e-5 v -10.23533 l 1.2041,-1e-5 z m -3.307,-10e-6 h -1.2041 v -10.23533 h 1.2041 z m -3.3069,-1e-5 h -1.2042 v -10.23532 l 1.2042,-1e-5 z m -3.3071,0 -1.2042,2e-5 v -10.23535 h 1.2042 z m -3.307,1e-5 h -1.2041 v -10.23533 h 1.2041 z m -3.307,-1e-5 h -1.2041 v -10.23533 h 1.2041 z m -7.4432,0 h -1.2042 v -10.23533 h 1.2042 z m -3.3069,1e-5 h -1.2042 v -10.23533 h 1.2042 z m -3.3072,0 h -1.2041 v -10.23533 h 1.2042 z m -3.3069,-1e-5 h -1.2042 v -10.23533 h 1.2042 z m -3.307,1e-5 -1.2041,10e-6 v -10.23536 l 1.2041,2e-5 z m -3.3069,-1e-5 -1.2043,2e-5 v -10.23536 l 1.2043,1e-5 z m -3.3071,0 h -1.2042 v -10.23532 l 1.2042,-1e-5 z"
         id="path483" />
    </g>
    <g
       id="g5201"
       transform="translate(-109.112)">
      <rect
         transform="rotate(-90)"
         y="1217.7681"
         x="61.569141"
         height="55"
         width="78"
         id="rect508"
         style="opacity:1;fill:none;fill-opacity:0.52298847;stroke:none;stroke-width:0.1;stroke-linecap:round;stroke-linejoin:round;stroke-miterlimit:4;stroke-dasharray:none;stroke-dashoffset:0;stroke-opacity:1" />
      <path
         inkscape:connector-curvature="0"
         id="path555"
         d="m 1294.2604,-188.88751 -0.1788,206.046339 42.6738,0.03721 60.402,-60.297093 0.01,-7.636227 -21.1997,-15.63987 -0.045,-38.872569 21.3056,-15.77319 0.01,-7.42591 -60.2971,-60.40148 z"
         style="opacity:1;fill:#000000;fill-opacity:1;stroke:none;stroke-width:0.1;stroke-linecap:round;stroke-linejoin:round;stroke-miterlimit:4;stroke-dasharray:none;stroke-dashoffset:0;stroke-opacity:1" />
      <path
         id="path527"
         d="m 1336.8528,17.20327 18.7091,18.70913 60.3046,-60.304576 -18.7092,-18.709132 z m 4.9751,-1.860415 0.8515,-0.851458 7.2375,7.237475 -0.8515,0.851458 z m 2.3384,-2.338368 0.8515,-0.851459 7.2374,7.237475 -0.8514,0.851458 z m 2.3384,-2.338369 0.8515,-0.851567 7.2375,7.237475 -0.8516,0.851567 z m 2.3384,-2.338474 0.8515,-0.851461 7.2375,7.237474 -0.8515,0.851461 z m 2.3384,-2.338369 0.8515,-0.851461 7.2375,7.237475 -0.8515,0.85146 z m 2.3384,-2.338364 0.8516,-0.851572 7.2374,7.237475 -0.8515,0.851571 z m 2.3385,-2.33848 0.8514,-0.85145404 7.2375,7.23747504 -0.8515,0.851454 z m 5.263,-5.26307 0.8515,-0.851473 7.2375,7.237475 -0.8515,0.851473 z m 2.3385,-2.338498 0.8515,-0.851451 7.2375,7.23747496 -0.8515,0.851451 z m 2.3384,-2.33835 0.8514,-0.851473 7.2375,7.237475 -0.8515,0.851473 z m 2.3384,-2.338369 0.8514,-0.851451 7.2375,7.237472 -0.8515,0.851454 z m 2.3384,-2.338476 0.8515,-0.851476 7.2375,7.237475 -0.8515,0.851473 z m 2.3384,-2.338372 0.8514,-0.851452 7.2375,7.237475 -0.8514,0.851452 z m 2.3384,-2.338371 0.8514,-0.851452 7.2375,7.237475 -0.8515,0.851452 z m 5.2631,-5.263173 0.8515,-0.851476 7.2375,7.237476 -0.8515,0.851472 z m 2.3384,-2.338371 0.8515,-0.851473 7.2374,7.237475 -0.8514,0.851473 z m 2.3385,-2.338477 0.8515,-0.851473 7.2374,7.237472 -0.8515,0.851476 z m 2.3384,-2.338371 0.8514,-0.851473 7.2375,7.237475 -0.8515,0.851473 z m 2.3383,-2.338372 0.8515,-0.851452 7.2375,7.237475 -0.8515,0.851452 z m 2.3384,-2.338369 0.8515,-0.851559 7.2375,7.237475 -0.8515,0.851559 z m 2.3385,-2.338476 0.8514,-0.851455 7.2375,7.237475 -0.8515,0.851452 z m -44.2607,60.97444 0.8515,-0.851458 7.2375,7.237475 -0.8515,0.851458 z m 2.3384,-2.338368 0.8515,-0.851459 7.2374,7.237475 -0.8514,0.851459 z m 2.3384,-2.338369 0.8515,-0.851567 7.2375,7.237475 -0.8516,0.851567 z m 2.3384,-2.338475 0.8515,-0.85146 7.2375,7.237474 -0.8515,0.851461 z m 2.3384,-2.338368 0.8515,-0.851461 7.2374,7.237475 -0.8514,0.851461 z m 2.3384,-2.338365 0.8516,-0.851571 7.2374,7.237475 -0.8516,0.851571 z m 2.3385,-2.338479 0.8514,-0.851454 7.2375,7.237475 -0.8515,0.851454 z m 5.263,-5.263069 0.8515,-0.851474 7.2375,7.237475 -0.8515,0.851473 z m 2.3385,-2.338499 0.8515,-0.851452 7.2375,7.237475 -0.8515,0.851452 z m 2.3384,-2.33835104 0.8514,-0.85147196 7.2375,7.237475 -0.8515,0.851474 z m 2.3384,-2.33836796 0.8514,-0.851452 7.2375,7.237474 -0.8515,0.851452 z m 2.3384,-2.338477 0.8515,-0.851475 7.2375,7.237475 -0.8515,0.851474 z m 2.3384,-2.338371 0.8514,-0.851452 7.2375,7.23747496 -0.8514,0.851452 z m 2.3384,-2.338372 0.8514,-0.851452 7.2375,7.237476 -0.8515,0.851451 z m 5.2631,-5.263172 0.8515,-0.851476 7.2375,7.237475 -0.8515,0.851476 z m 2.3384,-2.338372 0.8515,-0.851472 7.2374,7.237475 -0.8514,0.851472 z m 2.3385,-2.338476 0.8515,-0.851473 7.2374,7.237475 -0.8515,0.851473 z m 2.3384,-2.338372 0.8514,-0.851473 7.2375,7.237475 -0.8515,0.851473 z m 2.3383,-2.338368 0.8515,-0.851455 7.2375,7.237475 -0.8515,0.851452 z m 2.3384,-2.338372 0.8515,-0.85156 7.2375,7.237475 -0.8515,0.85156 z m 2.3385,-2.338477 0.8514,-0.851451 7.2375,7.237472 -0.8514,0.851454 z"
         style="opacity:1;fill:#000000;fill-opacity:1;stroke:none;stroke-width:0.1;stroke-linecap:round;stroke-linejoin:round;stroke-miterlimit:4;stroke-dasharray:none;stroke-dashoffset:0;stroke-opacity:1"
         inkscape:connector-curvature="0" />
      <path
         inkscape:connector-curvature="0"
         style="opacity:1;fill:#000000;fill-opacity:1;stroke:none;stroke-width:0.1;stroke-linecap:round;stroke-linejoin:round;stroke-miterlimit:4;stroke-dasharray:none;stroke-dashoffset:0;stroke-opacity:1"
         d="m 1397.2313,-128.4486 18.7092,-18.70913 -60.3046,-60.30457 -18.7092,18.70913 z m -1.8604,-4.97517 -0.8514,-0.85145 7.2374,-7.23747 0.8515,0.85145 z m -2.3384,-2.33837 -0.8514,-0.85145 7.2375,-7.23748 0.8514,0.85145 z m -2.3383,-2.33837 -0.8516,-0.85156 7.2375,-7.23748 0.8515,0.85156 z m -2.3385,-2.33846 -0.8514,-0.85147 7.2374,-7.23748 0.8515,0.85148 z m -2.3384,-2.33837 -0.8514,-0.85147 7.2374,-7.23748 0.8515,0.85148 z m -2.3383,-2.33837 -0.8516,-0.85158 7.2375,-7.23745 0.8516,0.85156 z m -2.3385,-2.33848 -0.8515,-0.85145 7.2375,-7.23747 0.8515,0.85145 z m -5.2631,-5.26307 -0.8514,-0.85149 7.2374,-7.23745 0.8515,0.85147 z m -2.3385,-2.33849 -0.8514,-0.85146 7.2374,-7.23747 0.8515,0.85145 z m -2.3383,-2.33835 -0.8515,-0.85147 7.2375,-7.23747 0.8515,0.85147 z m -2.3384,-2.33838 -0.8514,-0.85144 7.2374,-7.23747 0.8515,0.85144 z m -2.3385,-2.33847 -0.8515,-0.85148 7.2375,-7.23747 0.8515,0.85148 z m -2.3384,-2.33837 -0.8514,-0.85144 7.2375,-7.23749 0.8514,0.85146 z m -2.3383,-2.33837 -0.8515,-0.85145 7.2375,-7.23748 0.8515,0.85146 z m -5.2632,-5.26318 -0.8515,-0.85147 7.2375,-7.23747 0.8515,0.85147 z m -2.3384,-2.33836 -0.8514,-0.85147 7.2374,-7.23748 0.8515,0.85148 z m -2.3384,-2.33848 -0.8515,-0.85147 7.2375,-7.23747 0.8514,0.85148 z m -2.3384,-2.33838 -0.8515,-0.85148 7.2375,-7.23747 0.8515,0.85148 z m -2.3384,-2.33836 -0.8514,-0.85144 7.2374,-7.2375 0.8515,0.85147 z m -2.3383,-2.33839 -0.8516,-0.85153 7.2375,-7.2375 0.8515,0.85157 z m -2.3385,-2.33847 -0.8515,-0.85145 7.2375,-7.23747 0.8514,0.85145 z m 60.9744,44.26064 -0.8514,-0.85145 7.2374,-7.23748 0.8515,0.85145 z m -2.3384,-2.33837 -0.8514,-0.85145 7.2375,-7.23747 0.8514,0.85144 z m -2.3383,-2.33837 -0.8516,-0.85156 7.2375,-7.23747 0.8516,0.85158 z m -2.3385,-2.33846 -0.8514,-0.85147 7.2374,-7.23748 0.8515,0.85148 z m -2.3384,-2.3384 -0.8514,-0.85144 7.2375,-7.23745 0.8514,0.85145 z m -2.3383,-2.33834 -0.8516,-0.85158 7.2375,-7.23745 0.8516,0.85156 z m -2.3385,-2.33848 -0.8515,-0.85145 7.2375,-7.23746 0.8515,0.85144 z m -5.2631,-5.26307 -0.8514,-0.85147 7.2374,-7.23747 0.8515,0.85147 z m -2.3385,-2.33849 -0.8514,-0.85146 7.2375,-7.23747 0.8514,0.85145 z m -2.3383,-2.33835 -0.8515,-0.85147 7.2375,-7.23747 0.8514,0.85147 z m -2.3384,-2.33838 -0.8514,-0.85145 7.2374,-7.23747 0.8515,0.85145 z m -2.3385,-2.33847 -0.8514,-0.85146 7.2374,-7.23749 0.8515,0.85147 z m -2.3383,-2.33837 -0.8515,-0.85145 7.2375,-7.23747 0.8515,0.85145 z m -2.3384,-2.33838 -0.8515,-0.85145 7.2375,-7.23747 0.8515,0.85145 z m -5.2632,-5.26317 -0.8515,-0.85147 7.2375,-7.23747 0.8515,0.85147 z m -2.3384,-2.33836 -0.8514,-0.85147 7.2375,-7.23748 0.8514,0.85148 z m -2.3384,-2.33848 -0.8515,-0.85147 7.2375,-7.23747 0.8514,0.85147 z m -2.3384,-2.33838 -0.8515,-0.85148 7.2375,-7.23747 0.8515,0.85147 z m -2.3384,-2.33836 -0.8514,-0.85145 7.2374,-7.2375 0.8515,0.85148 z m -2.3383,-2.33839 -0.8516,-0.85153 7.2375,-7.2375 0.8515,0.85156 z m -2.3385,-2.33847 -0.8515,-0.85145 7.2375,-7.23747 0.8514,0.85145 z"
         id="path537" />
      <path
         inkscape:connector-curvature="0"
         id="path4228"
         d="m 1375.9484,-105.24977 v 38.7393 h 21.1393 v -38.7393 z m 2.6322,1.92748 h 1.3249 v 10.462645 h -1.3249 z m 3.6369,0 h 1.3249 v 10.462645 h -1.3249 z m 3.6385,0 h 1.3241 v 10.462645 h -1.3241 z m 3.6369,0 h 1.3249 v 10.462645 h -1.3249 z m 3.6386,0 h 1.3241 v 10.462645 h -1.3241 z m -14.5509,12.210855 h 1.3249 v 10.462641 h -1.3249 z m 3.6369,0 h 1.3249 v 10.462641 h -1.3249 z m 3.6385,0 h 1.3241 v 10.462641 h -1.3241 z m 3.6369,0 h 1.3249 v 10.462641 h -1.3249 z m 3.6386,0 h 1.3241 v 10.462641 h -1.3241 z m -14.5509,12.210388 h 1.3249 v 10.46356 h -1.3249 z m 3.6369,0 h 1.3249 v 10.46356 h -1.3249 z m 3.6385,0 h 1.3241 v 10.46356 h -1.3241 z m 3.6369,0 h 1.3249 v 10.46356 h -1.3249 z m 3.6386,0 h 1.3241 v 10.46356 h -1.3241 z"
         style="opacity:1;fill:#000000;fill-opacity:1;stroke:none;stroke-width:0.1;stroke-linecap:round;stroke-linejoin:round;stroke-miterlimit:4;stroke-dasharray:none;stroke-dashoffset:0;stroke-opacity:1" />
      <path
         inkscape:connector-curvature="0"
         id="path4010"
         d="m 1418.5153,-121.11284 -21.4277,15.86312 0.045,38.872564 21.3827,15.775263 z"
         style="opacity:1;fill:#000000;fill-opacity:1;stroke:none;stroke-width:0.1;stroke-linecap:round;stroke-linejoin:round;stroke-miterlimit:4;stroke-dasharray:none;stroke-dashoffset:0;stroke-opacity:1" />
      <path
         inkscape:connector-curvature="0"
         id="path4317"
         d="m 1397.2386,-128.4266 v 7.31376 h 21.2767 v 70.510947 h -21.2767 v 7.313765 h 26.5513 v -7.313765 -70.510947 -7.31376 z"
         style="opacity:1;fill:#000000;fill-opacity:1;stroke:none;stroke-width:0.1;stroke-linecap:round;stroke-linejoin:round;stroke-miterlimit:4;stroke-dasharray:none;stroke-dashoffset:0;stroke-opacity:1" />
    </g>
  </g>
</svg>
